<svg width="242" height="245" viewBox="0 0 242 245" fill="none" xmlns="http://www.w3.org/2000/svg">
<g filter="url(#filter0_d_26_1644)">
<path d="M2.99536 6V3H5.99536V0H8.99536V3V6H5.99536V9H2.99536V6Z" fill="#1E3445"/>
<path d="M2.99536 6V9H-4.48227e-05V6H2.99536Z" fill="#1E3445"/>
<rect x="8.99536" width="219.009" height="3" fill="#1E3445"/>
<path d="M234.005 6V3H231.005V0H228.005V3V6H231.005V9H234.005V6Z" fill="#1E3445"/>
<path d="M234.005 6V9H237V6H234.005Z" fill="#1E3445"/>
<rect y="9" width="3" height="227" fill="#1E3445"/>
<rect x="236" y="9" width="3" height="224" fill="#1E3445"/>
<path d="M234 3V6V9H217V6H200V3H217H234Z" fill="#1E3445"/>
<path d="M3 3V6V9H6V6H9V3H6H3Z" fill="#1E3445"/>
<path d="M4.99536 236V239H7.99536V242H10.9954V239V236H7.99536V233H4.99536V236Z" fill="#1E3445"/>
<path d="M4.99536 236V233H1.99996V236H4.99536Z" fill="#1E3445"/>
<rect width="218.009" height="3" transform="matrix(1 0 0 -1 10.9954 242)" fill="#1E3445"/>
<path d="M235.005 236V239H232.005V242H229.005V239V236H232.005V233H235.005V236Z" fill="#1E3445"/>
<path d="M235.005 236V233H238V236H235.005Z" fill="#1E3445"/>
</g>
<defs>
<filter id="filter0_d_26_1644" x="0" y="0" width="245" height="248" filterUnits="userSpaceOnUse" color-interpolation-filters="sRGB">
<feFlood flood-opacity="0" result="BackgroundImageFix"/>
<feColorMatrix in="SourceAlpha" type="matrix" values="0 0 0 0 0 0 0 0 0 0 0 0 0 0 0 0 0 0 127 0" result="hardAlpha"/>
<feOffset dx="3" dy="3"/>
<feComposite in2="hardAlpha" operator="out"/>
<feColorMatrix type="matrix" values="0 0 0 0 0.117647 0 0 0 0 0.203922 0 0 0 0 0.270588 0 0 0 1 0"/>
<feBlend mode="normal" in2="BackgroundImageFix" result="effect1_dropShadow_26_1644"/>
<feBlend mode="normal" in="SourceGraphic" in2="effect1_dropShadow_26_1644" result="shape"/>
</filter>
</defs>
</svg>
