<svg width="121" height="49" viewBox="0 0 121 49" fill="none" xmlns="http://www.w3.org/2000/svg">
<g filter="url(#filter0_d_68_2655)">
<path d="M15.9141 0.00439453V3.24764H12.9141V6.49088H9.91406V33.5179H12.9141V36.7612H15.9141V40.0044H18.9141V0.00439453H15.9141Z" fill="#F24E1E"/>
<rect width="88.223" height="39.6421" transform="translate(16.0312)" fill="#F24E1E"/>
<path d="M36.0859 15.4382H37.1924V16.5339V17.6296H36.0859H34.9902V16.5339H33.8945H32.7881H31.6924H30.5967V17.6296V18.7361H31.6924H32.7881H33.8945H34.9902H36.0859V19.8318H37.1924V20.9275V22.0339V23.1296V24.2253H36.0859V25.3318H34.9902H33.8945H32.7881H31.6924H30.5967H29.4902V24.2253H28.3945V23.1296V22.0339H29.4902H30.5967V23.1296H31.6924H32.7881H33.8945H34.9902V22.0339V20.9275H33.8945H32.7881H31.6924H30.5967V19.8318H29.4902V18.7361H28.3945V17.6296V16.5339V15.4382H29.4902V14.3318H30.5967H31.6924H32.7881H33.8945H34.9902H36.0859V15.4382ZM46.8984 14.3318H48.0049V15.4382V16.5339V17.6296V18.7361V19.8318V20.9275V22.0339V23.1296V24.2361H46.8984V25.3318H45.8027H44.6963H43.6006H42.5049H41.3984H40.3027V24.2361H39.207V23.1296V22.0339V20.9275V19.8318V18.7361V17.6296V16.5339V15.4382V14.3318H40.3027H41.3984V15.4382V16.5339V17.6296V18.7361V19.8318V20.9275V22.0339V23.1296H42.5049H43.6006H44.6963H45.8027V22.0339V20.9275V19.8318V18.7361V17.6296V16.5339V15.4382V14.3318H46.8984ZM57.7217 15.4275H58.8174V16.5232V17.6296V18.7253H57.7217V19.821H58.8174V20.9275V22.0232V23.1189V24.2253H57.7217V25.321H56.626H55.5195H54.4238H53.3174H52.2217H51.126H50.0195V24.2253V23.1189V22.0232V20.9275V19.821V18.7253V17.6296V16.5232V15.4275V14.321H51.126H52.2217H53.3174H54.4238H55.5195H56.626H57.7217V15.4275ZM56.626 22.0232V20.9275H55.5195H54.4238H53.3174H52.2217V22.0232V23.1189H53.3174H54.4238H55.5195H56.626V22.0232ZM55.5195 18.7253H56.626V17.6296V16.5232H55.5195H54.4238H53.3174H52.2217V17.6296V18.7253H53.3174H54.4238H55.5195ZM68.5234 14.3318H69.6191V15.4382V16.5339V17.6296V18.7361V19.8318V20.9275V22.0339V23.1296V24.2361V25.3318H68.5234H67.4277V24.2361V23.1296V22.0339V20.9275V19.8318V18.7361V17.6296H66.3213V18.7361V19.8318V20.9275V22.0339V23.1296V24.2361H65.2256H64.1299V23.1296V22.0339V20.9275V19.8318V18.7361V17.6296H63.0234V18.7361V19.8318V20.9275V22.0339V23.1296V24.2361V25.3318H61.9277H60.832V24.2361V23.1296V22.0339V20.9275V19.8318V18.7361V17.6296V16.5339V15.4382V14.3318H61.9277H63.0234V15.4382H64.1299V16.5339H65.2256H66.3213V15.4382H67.4277V14.3318H68.5234ZM79.3252 14.321V15.6208V16.5232H78.2188H77.123V17.6296V18.7253V19.821V20.9275V22.0232V23.1189H78.2188H79.3252V25.321H78.2188H77.123H76.0273H74.9209H73.8252H72.7188V23.1189H73.8252H74.9209V22.0232V20.9275V19.821V18.7253V17.6296V16.5232H73.8252H72.7188V14.321H73.8252H74.9209H76.0273H77.123H78.2188H79.3252ZM79.3252 14.321H80.4209V15.4275V16.5232H79.3252H78.2188H77.123H76.0273H74.9209H73.8252H72.7295H71.623V15.4275V14.321H72.7295H73.8252H74.9209H76.0273H77.123H78.2188H79.3252ZM79.3252 23.1296H80.4209V24.2253V25.321H79.3252H78.2188H77.123H76.0273H74.9209H73.8252H72.7295H71.623V24.2253V23.1296H72.7295H73.8252H74.9209H76.0273H77.123H78.2188H79.3252ZM90.127 14.3318H91.2334V15.4382V16.5339V17.6296H90.127V16.5339H89.0312H87.9355V17.6296V18.7361V19.8318V20.9275V22.0339V23.1296V24.2253V25.3318H86.8291H85.7334V24.2253V23.1296V22.0339V20.9275V19.8318V18.7361V17.6296V16.5339H84.627H83.5312V17.6296H82.4355V16.5339V15.4382V14.3318H83.5312H84.627H85.7334H86.8291H87.9355H89.0312H90.127Z" fill="white"/>
<rect width="88.223" height="39.6421" transform="translate(16.0312)" fill="#F24E1E"/>
<path d="M36.0967 15.4275H37.1924V16.5232V17.6296H36.0967H34.9902V16.5232H33.8945H32.7988H31.6924H30.5967V17.6296V18.7253V19.821V20.9275V22.0232V23.1189H31.6924H32.7988H33.8945H34.9902V22.0232H36.0967H37.1924V23.1189V24.2253H36.0967V25.321H34.9902H33.8945H32.7988H31.6924H30.5967H29.501V24.2253H28.3945V23.1189V22.0232V20.9275V19.821V18.7253V17.6296V16.5232V15.4275H29.501V14.321H30.5967H31.6924H32.7988H33.8945H34.9902H36.0967V15.4275ZM46.9092 15.4382H48.0049V16.5339V17.6296V18.7361V19.8318H46.9092V20.9275H45.8027V22.0339H46.9092V23.1296H48.0049V24.2253V25.3318H46.9092H45.8027V24.2253H44.707V23.1296H43.6006V22.0339H42.5049H41.4092V23.1296V24.2253V25.3318H40.3027H39.207V24.2253V23.1296V22.0339V20.9275V19.8318V18.7361V17.6296V16.5339V15.4382V14.3318H40.3027H41.4092H42.5049H43.6006H44.707H45.8027H46.9092V15.4382ZM44.707 19.8318H45.8027V18.7361V17.6296V16.5339H44.707H43.6006H42.5049H41.4092V17.6296V18.7361V19.8318H42.5049H43.6006H44.707ZM57.7217 14.321H58.8174V15.4275V16.5232H57.7217H56.6152H55.5195H54.4131H53.3174H52.2217V17.6296V18.7253H53.3174H54.4131H55.5195H56.6152H57.7217V19.821H56.6152V20.9275H55.5195H54.4131H53.3174H52.2217V22.0232V23.1189H53.3174H54.4131H55.5195H56.6152H57.7217H58.8174V24.2253V25.321H57.7217H56.6152H55.5195H54.4131H53.3174H52.2217H51.1152H50.0195V24.2253V23.1189V22.0232V20.9275V19.821V18.7253V17.6296V16.5232V15.4275V14.321H51.1152H52.2217H53.3174H54.4131H55.5195H56.6152H57.7217ZM68.5342 16.5339H69.6299V17.6404V18.7361V19.8318V20.9382V22.0339V23.1296V24.2361V25.3318H68.5342H67.4385V24.2361V23.1296V22.0339H66.332H65.2363H64.1299H63.0342V23.1296V24.2361V25.3318H61.9385H60.832V24.2361V23.1296V22.0339V20.9382V19.8318V18.7361V17.6404V16.5339H61.9385V15.4382H63.0342V14.3318H64.1299H65.2363H66.332H67.4385V15.4382H68.5342V16.5339ZM67.4492 18.7253V17.6296H66.3428V16.5232H65.2471H64.1406V17.6296H63.0449V18.7253V19.821H64.1406H65.2471H66.3428H67.4492V18.7253ZM79.3359 14.3318H80.4424V15.4382V16.5339V17.6296H79.3359V16.5339H78.2402H77.1445V17.6296V18.7361V19.8318V20.9275V22.0339V23.1296V24.2253V25.3318H76.0381H74.9424V24.2253V23.1296V22.0339V20.9275V19.8318V18.7361V17.6296V16.5339H73.8359H72.7402V17.6296H71.6445V16.5339V15.4382V14.3318H72.7402H73.8359H74.9424H76.0381H77.1445H78.2402H79.3359ZM90.1592 14.321H91.2549V15.4275V16.5232H90.1592H89.0527H87.957H86.8506H85.7549H84.6592V17.6296V18.7253H85.7549H86.8506H87.957H89.0527H90.1592V19.821H89.0527V20.9275H87.957H86.8506H85.7549H84.6592V22.0232V23.1189H85.7549H86.8506H87.957H89.0527H90.1592H91.2549V24.2253V25.321H90.1592H89.0527H87.957H86.8506H85.7549H84.6592H83.5527H82.457V24.2253V23.1189V22.0232V20.9275V19.821V18.7253V17.6296V16.5232V15.4275V14.321H83.5527H84.6592H85.7549H86.8506H87.957H89.0527H90.1592Z" fill="white"/>
<path d="M106.914 40.0044V36.7612H109.914V33.5179H112.914V6.49088H109.914V3.24764H106.914V0.00439453H103.914V40.0044H106.914Z" fill="#F24E1E"/>
</g>
<defs>
<filter id="filter0_d_68_2655" x="0" y="0" width="120.285" height="48.0044" filterUnits="userSpaceOnUse" color-interpolation-filters="sRGB">
<feFlood flood-opacity="0" result="BackgroundImageFix"/>
<feColorMatrix in="SourceAlpha" type="matrix" values="0 0 0 0 0 0 0 0 0 0 0 0 0 0 0 0 0 0 127 0" result="hardAlpha"/>
<feOffset dy="4"/>
<feGaussianBlur stdDeviation="2"/>
<feComposite in2="hardAlpha" operator="out"/>
<feColorMatrix type="matrix" values="0 0 0 0 0 0 0 0 0 0 0 0 0 0 0 0 0 0 0.25 0"/>
<feBlend mode="normal" in2="BackgroundImageFix" result="effect1_dropShadow_68_2655"/>
<feBlend mode="normal" in="SourceGraphic" in2="effect1_dropShadow_68_2655" result="shape"/>
</filter>
</defs>
</svg>
