<svg width="306" height="49" viewBox="0 0 306 49" fill="none" xmlns="http://www.w3.org/2000/svg">
<g filter="url(#filter0_d_10_1180)">
<path d="M32.2188 28.0469H36.2422V32.0312V36.0547V40.0391H32.2188H28.2344H24.2109H20.2266H16.2422H12.2188H8.23438H4.25V36.0547V32.0312V28.0469V24.0234V20.0391V16.0547V12.0312V8.04688V4.0625V0.0390625H8.23438H12.2188V4.0625V8.04688V12.0312V16.0547V20.0391V24.0234V28.0469V32.0312H16.2422H20.2266H24.2109H28.2344V28.0469H32.2188ZM69.7578 4.0625H73.7422V8.04688V12.0312V16.0547V20.0391V24.0234V28.0469V32.0312V36.0547H69.7578V40.0391H65.7734H61.75H57.7656H53.7422H49.7578H45.7734V36.0547H41.75V32.0312V28.0469V24.0234V20.0391V16.0547V12.0312V8.04688V4.0625H45.7734V0.0390625H49.7578H53.7422H57.7656H61.75H65.7734H69.7578V4.0625ZM65.7734 12.0312V8.04688H61.75H57.7656H53.7422H49.7578V12.0312V16.0547V20.0391V24.0234V28.0469V32.0312H53.7422H57.7656H61.75H65.7734V28.0469V24.0234V20.0391V16.0547V12.0312ZM107.258 8.04688H111.242V12.0703V16.0547V20.0391V24.0625V28.0469V32.0312V36.0547V40.0391H107.258H103.273V36.0547V32.0312V28.0469H99.25H95.2656H91.2422H87.2578V32.0312V36.0547V40.0391H83.2734H79.25V36.0547V32.0312V28.0469V24.0625V20.0391V16.0547V12.0703V8.04688H83.2734V4.0625H87.2578V0.0390625H91.2422H95.2656H99.25H103.273V4.0625H107.258V8.04688ZM103.312 16.0156V12.0312H99.2891V8.00781H95.3047H91.2812V12.0312H87.2969V16.0156V20H91.2812H95.3047H99.2891H103.312V16.0156ZM144.758 8.00781H148.742V12.0312V16.0156V20V24.0234V28.0078V31.9922H144.758V36.0156H140.734V40H136.75H132.766H128.742H124.758H120.773H116.75V36.0156V31.9922V28.0078V24.0234V20V16.0156V12.0312V8.00781V4.02344V0H120.773H124.758H128.742H132.766H136.75H140.734V4.02344H144.758V8.00781ZM140.734 12.0312V8.00781H136.75H132.766H128.742H124.758V12.0312V16.0156V20V24.0234V28.0078V31.9922H128.742H132.766H136.75H140.734V28.0078V24.0234V20V16.0156V12.0312ZM182.258 0V4.72656V8.00781H178.234H174.25V12.0312V16.0156V20V24.0234V28.0078V31.9922H178.234H182.258V40H178.234H174.25H170.266H166.242H162.258H158.234V31.9922H162.258H166.242V28.0078V24.0234V20V16.0156V12.0312V8.00781H162.258H158.234V0H162.258H166.242H170.266H174.25H178.234H182.258ZM182.258 0H186.242V4.02344V8.00781H182.258H178.234H174.25H170.266H166.242H162.258H158.273H154.25V4.02344V0H158.273H162.258H166.242H170.266H174.25H178.234H182.258ZM182.258 32.0312H186.242V36.0156V40H182.258H178.234H174.25H170.266H166.242H162.258H158.273H154.25V36.0156V32.0312H158.273H162.258H166.242H170.266H174.25H178.234H182.258ZM219.719 0H223.703V4.02344V8.00781V12.0312V16.0156V20V24.0234V28.0078V31.9922V36.0156V40H219.719H215.734H211.711H207.727V36.0156H203.742V31.9922V28.0078V24.0234V20V16.0156V12.0312V8.00781V4.02344H199.719V8.00781V12.0312V16.0156V20V24.0234V28.0078V31.9922V36.0156V40H195.734H191.75V36.0156V31.9922V28.0078V24.0234V20V16.0156V12.0312V8.00781V4.02344V0H195.734H199.719H203.742H207.727V4.02344H211.711V8.00781V12.0312V16.0156V20V24.0234V28.0078V31.9922V36.0156H215.734V31.9922V28.0078V24.0234V20V16.0156V12.0312V8.00781V4.02344V0H219.719ZM257.141 4.02344H261.164V8.00781V12.0312H257.141H253.156V8.00781H249.172H245.148H241.164H237.141V12.0312V16.0156V20V24.0234V28.0078V31.9922H241.164H245.148H249.172H253.156V28.0078V24.0234H249.172H245.148H241.164V20V16.0156H245.148H249.172H253.156H257.141V20H261.164V24.0234V28.0078V31.9922V36.0156H257.141V40H253.156H249.172H245.148H241.164H237.141H233.156V36.0156H229.172V31.9922V28.0078V24.0234V20V16.0156V12.0312V8.00781V4.02344H233.156V0H237.141H241.164H245.148H249.172H253.156H257.141V4.02344ZM266.672 32.0312H270.695H274.68V36.0156V40H270.695H266.672V36.0156V32.0312ZM280.188 32.0312H284.211H288.195V36.0156V40H284.211H280.188V36.0156V32.0312ZM293.703 32.0312H297.727H301.711V36.0156V40H297.727H293.703V36.0156V32.0312Z" fill="#0000A0"/>
</g>
<defs>
<filter id="filter0_d_10_1180" x="0.25" y="0" width="305.461" height="48.0391" filterUnits="userSpaceOnUse" color-interpolation-filters="sRGB">
<feFlood flood-opacity="0" result="BackgroundImageFix"/>
<feColorMatrix in="SourceAlpha" type="matrix" values="0 0 0 0 0 0 0 0 0 0 0 0 0 0 0 0 0 0 127 0" result="hardAlpha"/>
<feOffset dy="4"/>
<feGaussianBlur stdDeviation="2"/>
<feComposite in2="hardAlpha" operator="out"/>
<feColorMatrix type="matrix" values="0 0 0 0 0 0 0 0 0 0 0 0 0 0 0 0 0 0 0.25 0"/>
<feBlend mode="normal" in2="BackgroundImageFix" result="effect1_dropShadow_10_1180"/>
<feBlend mode="normal" in="SourceGraphic" in2="effect1_dropShadow_10_1180" result="shape"/>
</filter>
</defs>
</svg>
