<svg width="874" height="89" viewBox="0 0 874 89" fill="none" xmlns="http://www.w3.org/2000/svg">
<g filter="url(#filter0_d_41_2314)">
<path d="M2.99542 6V3H5.99542V0H8.99542V3V6H5.99542V9H2.99542V6Z" fill="#76EF20"/>
<path d="M2.99542 6V9H1.62125e-05V6H2.99542Z" fill="#76EF20"/>
<rect x="8.99542" width="853.009" height="3" fill="#76EF20"/>
<path d="M868.005 6V3H865.005V0H862.005V3V6H865.005V9H868.005V6Z" fill="#76EF20"/>
<path d="M868.005 6V9H871V6H868.005Z" fill="#76EF20"/>
<rect y="9" width="3" height="68" fill="#76EF20"/>
<rect width="865" height="80" transform="translate(3 3)" fill="#76EF20"/>
<path d="M18.12 56.28C17.5867 56.28 17.16 56.12 16.84 55.8C16.5467 55.48 16.4 55.04 16.4 54.48V29.4C16.4 28.7867 16.5467 28.32 16.84 28C17.1333 27.68 17.52 27.52 18 27.52C18.4533 27.52 18.8 27.6 19.04 27.76C19.28 27.92 19.5467 28.2 19.84 28.6L36.8 51.08H35.8V29.32C35.8 28.7333 35.9467 28.2933 36.24 28C36.56 27.68 37 27.52 37.56 27.52C38.12 27.52 38.5467 27.68 38.84 28C39.1333 28.2933 39.28 28.7333 39.28 29.32V54.48C39.28 55.04 39.1333 55.48 38.84 55.8C38.5733 56.12 38.2133 56.28 37.76 56.28C37.3333 56.28 36.9733 56.1867 36.68 56C36.4133 55.84 36.1333 55.56 35.84 55.16L18.92 32.68H19.84V54.48C19.84 55.04 19.6933 55.48 19.4 55.8C19.1067 56.12 18.68 56.28 18.12 56.28ZM52.2684 56.36C50.9351 56.36 49.7218 56.0933 48.6284 55.56C47.5618 55.0267 46.7218 54.3067 46.1084 53.4C45.5218 52.4933 45.2284 51.48 45.2284 50.36C45.2284 48.92 45.5884 47.7867 46.3084 46.96C47.0284 46.1333 48.2418 45.5467 49.9484 45.2C51.6551 44.8267 53.9484 44.64 56.8284 44.64H58.7084V46.96H56.9084C54.8551 46.96 53.2284 47.0533 52.0284 47.24C50.8551 47.4267 50.0284 47.76 49.5484 48.24C49.0684 48.6933 48.8284 49.3333 48.8284 50.16C48.8284 51.2 49.1884 52.0533 49.9084 52.72C50.6551 53.3867 51.6684 53.72 52.9484 53.72C53.9618 53.72 54.8551 53.48 55.6284 53C56.4018 52.4933 57.0151 51.8267 57.4684 51C57.9218 50.1467 58.1484 49.1733 58.1484 48.08V43.48C58.1484 41.9067 57.8284 40.7733 57.1884 40.08C56.5484 39.36 55.4684 39 53.9484 39C53.0684 39 52.1618 39.12 51.2284 39.36C50.2951 39.6 49.3218 39.9733 48.3084 40.48C47.9084 40.6667 47.5618 40.7333 47.2684 40.68C46.9751 40.6 46.7351 40.44 46.5484 40.2C46.3884 39.9333 46.2951 39.6533 46.2684 39.36C46.2684 39.04 46.3351 38.7333 46.4684 38.44C46.6284 38.1467 46.8951 37.9333 47.2684 37.8C48.4418 37.2133 49.6018 36.8 50.7484 36.56C51.9218 36.2933 53.0151 36.16 54.0284 36.16C55.7618 36.16 57.1884 36.44 58.3084 37C59.4284 37.5333 60.2684 38.3733 60.8284 39.52C61.3884 40.64 61.6684 42.08 61.6684 43.84V54.4C61.6684 55.0133 61.5218 55.48 61.2284 55.8C60.9351 56.12 60.5084 56.28 59.9484 56.28C59.4151 56.28 58.9884 56.12 58.6684 55.8C58.3751 55.48 58.2284 55.0133 58.2284 54.4V51.56H58.5884C58.3751 52.5467 57.9751 53.4 57.3884 54.12C56.8018 54.84 56.0684 55.4 55.1884 55.8C54.3351 56.1733 53.3618 56.36 52.2684 56.36ZM69.7766 56.28C69.2166 56.28 68.7766 56.12 68.4566 55.8C68.1366 55.48 67.9766 55.0133 67.9766 54.4V38.08C67.9766 37.4667 68.1366 37.0133 68.4566 36.72C68.7766 36.4 69.2166 36.24 69.7766 36.24C70.3366 36.24 70.7632 36.4 71.0566 36.72C71.3766 37.0133 71.5366 37.4667 71.5366 38.08V41.48L71.0966 40.76C71.6032 39.2933 72.4166 38.16 73.5366 37.36C74.6832 36.56 76.0432 36.16 77.6166 36.16C79.2699 36.16 80.6032 36.56 81.6166 37.36C82.6299 38.1333 83.3099 39.32 83.6566 40.92H83.0966C83.5766 39.4533 84.4299 38.2933 85.6566 37.44C86.9099 36.5867 88.3632 36.16 90.0166 36.16C91.4832 36.16 92.6832 36.4533 93.6166 37.04C94.5766 37.6 95.2966 38.4533 95.7766 39.6C96.2566 40.72 96.4966 42.16 96.4966 43.92V54.4C96.4966 55.0133 96.3366 55.48 96.0166 55.8C95.6966 56.12 95.2566 56.28 94.6966 56.28C94.1099 56.28 93.6566 56.12 93.3366 55.8C93.0166 55.48 92.8566 55.0133 92.8566 54.4V44.08C92.8566 42.3733 92.5632 41.12 91.9766 40.32C91.3899 39.52 90.4032 39.12 89.0166 39.12C87.4966 39.12 86.2832 39.6533 85.3766 40.72C84.4966 41.76 84.0566 43.2 84.0566 45.04V54.4C84.0566 55.0133 83.8966 55.48 83.5766 55.8C83.2832 56.12 82.8432 56.28 82.2566 56.28C81.6699 56.28 81.2166 56.12 80.8966 55.8C80.5766 55.48 80.4166 55.0133 80.4166 54.4V44.08C80.4166 42.3733 80.1232 41.12 79.5366 40.32C78.9499 39.52 77.9632 39.12 76.5766 39.12C75.0566 39.12 73.8432 39.6533 72.9366 40.72C72.0566 41.76 71.6166 43.2 71.6166 45.04V54.4C71.6166 55.6533 71.0032 56.28 69.7766 56.28ZM111.85 56.36C109.743 56.36 107.93 55.96 106.41 55.16C104.916 54.3333 103.756 53.1733 102.93 51.68C102.103 50.16 101.69 48.3733 101.69 46.32C101.69 44.2933 102.09 42.52 102.89 41C103.716 39.48 104.836 38.2933 106.25 37.44C107.69 36.5867 109.33 36.16 111.17 36.16C112.476 36.16 113.65 36.3867 114.69 36.84C115.756 37.2667 116.663 37.8933 117.41 38.72C118.156 39.5467 118.716 40.56 119.09 41.76C119.49 42.9333 119.69 44.2667 119.69 45.76C119.69 46.1867 119.556 46.52 119.29 46.76C119.05 46.9733 118.69 47.08 118.21 47.08H104.53V44.76H117.29L116.61 45.32C116.61 43.9333 116.396 42.76 115.97 41.8C115.57 40.8133 114.97 40.0667 114.17 39.56C113.396 39.0533 112.423 38.8 111.25 38.8C109.97 38.8 108.876 39.1067 107.97 39.72C107.063 40.3067 106.37 41.1467 105.89 42.24C105.41 43.3067 105.17 44.5467 105.17 45.96V46.2C105.17 48.6 105.743 50.4133 106.89 51.64C108.036 52.8667 109.69 53.48 111.85 53.48C112.703 53.48 113.57 53.3733 114.45 53.16C115.356 52.9467 116.223 52.56 117.05 52C117.45 51.76 117.81 51.6533 118.13 51.68C118.476 51.68 118.756 51.7867 118.97 52C119.183 52.1867 119.316 52.4267 119.37 52.72C119.423 52.9867 119.383 53.28 119.25 53.6C119.116 53.92 118.863 54.2 118.49 54.44C117.61 55.0533 116.556 55.5333 115.33 55.88C114.13 56.2 112.97 56.36 111.85 56.36Z" fill="#76EF20"/>
<rect x="868" y="9" width="3" height="68" fill="#76EF20"/>
<path d="M2.99542 80V83H5.99542V86H8.99542V83V80H5.99542V77H2.99542V80Z" fill="#76EF20"/>
<path d="M2.99542 80V77H1.62125e-05V80H2.99542Z" fill="#76EF20"/>
<rect width="853.009" height="3" transform="matrix(1 0 0 -1 8.99542 86)" fill="#76EF20"/>
<path d="M868.005 80V83H865.005V86H862.005V83V80H865.005V77H868.005V80Z" fill="#76EF20"/>
<path d="M868.005 80V77H871V80H868.005Z" fill="#76EF20"/>
</g>
<g filter="url(#filter1_d_41_2314)">
<path d="M354 23V26H351V29H348V54H351V57H354V60H357V23H354Z" fill="#F7FBF8"/>
</g>
<g filter="url(#filter2_d_41_2314)">
<rect width="74" height="37" transform="translate(357 23)" fill="#F7FBF8"/>
<path d="M375.443 37.1064H376.55V38.2021V39.3085H375.443H374.348V38.2021H373.252H372.146H371.05H369.943V39.3085V40.4042V41.4999V42.6064V43.7021V44.7978H371.05H372.146H373.252H374.348V43.7021V42.6064H373.252H372.146H371.05V41.4999V40.4042H372.146H373.252H374.348H375.443V41.4999H376.55V42.6064V43.7021V44.7978V45.9042H375.443V46.9999H374.348H373.252H372.146H371.05H369.943H368.848V45.9042H367.752V44.7978V43.7021V42.6064V41.4999V40.4042V39.3085V38.2021V37.1064H368.848V35.9999H369.943H371.05H372.146H373.252H374.348H375.443V37.1064ZM386.267 35.9999H387.362V37.1064V38.2021H386.267H385.16H384.064H382.958H381.862H380.767V39.3085V40.4042H381.862H382.958H384.064H385.16H386.267V41.4999H385.16V42.6064H384.064H382.958H381.862H380.767V43.7021V44.7978H381.862H382.958H384.064H385.16H386.267H387.362V45.9042V46.9999H386.267H385.16H384.064H382.958H381.862H380.767H379.66H378.564V45.9042V44.7978V43.7021V42.6064V41.4999V40.4042V39.3085V38.2021V37.1064V35.9999H379.66H380.767H381.862H382.958H384.064H385.16H386.267ZM397.068 35.9999H398.164V37.1064V38.2021V39.3085V40.4042V41.4999V42.6064V43.7021V44.7978V45.9042V46.9999H397.068H395.973H394.866H393.771V45.9042H392.675V44.7978V43.7021V42.6064V41.4999V40.4042V39.3085V38.2021V37.1064H391.568V38.2021V39.3085V40.4042V41.4999V42.6064V43.7021V44.7978V45.9042V46.9999H390.473H389.377V45.9042V44.7978V43.7021V42.6064V41.4999V40.4042V39.3085V38.2021V37.1064V35.9999H390.473H391.568H392.675H393.771V37.1064H394.866V38.2021V39.3085V40.4042V41.4999V42.6064V43.7021V44.7978V45.9042H395.973V44.7978V43.7021V42.6064V41.4999V40.4042V39.3085V38.2021V37.1064V35.9999H397.068ZM407.87 37.1171H408.966V38.2128V39.3085V40.415V41.5107H407.87V42.6064H406.764V43.7128H407.87V44.8085H408.966V45.9042V47.0107H407.87H406.764V45.9042H405.668V44.8085H404.562V43.7128H403.466H402.37V44.8085V45.9042V47.0107H401.264H400.168V45.9042V44.8085V43.7128V42.6064V41.5107V40.415V39.3085V38.2128V37.1171V36.0107H401.264H402.37H403.466H404.562H405.668H406.764H407.87V37.1171ZM405.668 41.5107H406.764V40.415V39.3085V38.2128H405.668H404.562H403.466H402.37V39.3085V40.415V41.5107H403.466H404.562H405.668ZM418.683 35.9999H419.778V37.1064V38.2021H418.683H417.576H416.48H415.374H414.278H413.183V39.3085V40.4042H414.278H415.374H416.48H417.576H418.683V41.4999H417.576V42.6064H416.48H415.374H414.278H413.183V43.7021V44.7978H414.278H415.374H416.48H417.576H418.683H419.778V45.9042V46.9999H418.683H417.576H416.48H415.374H414.278H413.183H412.076H410.98V45.9042V44.7978V43.7021V42.6064V41.4999V40.4042V39.3085V38.2021V37.1064V35.9999H412.076H413.183H414.278H415.374H416.48H417.576H418.683Z" fill="#1E3445"/>
</g>
<g filter="url(#filter3_d_41_2314)">
<path d="M434 60V57H437V54H440V29H437V26H434V23H431V60H434Z" fill="#F7FBF8"/>
</g>
<g filter="url(#filter4_d_41_2314)">
<path d="M533 23V26H530V29H527V54H530V57H533V60H536V23H533Z" fill="#F7FBF8"/>
</g>
<g filter="url(#filter5_d_41_2314)">
<rect width="62" height="37" transform="translate(536 23)" fill="#F7FBF8"/>
<path d="M559.454 38.2128H560.55V39.3193V40.415V41.5107V42.6171V43.7128V44.8085V45.915V47.0107H559.454H558.358V45.915V44.8085V43.7128H557.252H556.156H555.05H553.954V44.8085V45.915V47.0107H552.858H551.752V45.915V44.8085V43.7128V42.6171V41.5107V40.415V39.3193V38.2128H552.858V37.1171H553.954V36.0107H555.05H556.156H557.252H558.358V37.1171H559.454V38.2128ZM558.369 40.4042V39.3085H557.263V38.2021H556.167H555.061V39.3085H553.965V40.4042V41.4999H555.061H556.167H557.263H558.369V40.4042ZM570.267 37.1064H571.362V38.2021V39.3085V40.4042H570.267V41.4999H571.362V42.6064V43.7021V44.7978V45.9042H570.267V46.9999H569.171H568.064H566.969H565.862H564.767H563.671H562.564V45.9042V44.7978V43.7021V42.6064V41.4999V40.4042V39.3085V38.2021V37.1064V35.9999H563.671H564.767H565.862H566.969H568.064H569.171H570.267V37.1064ZM569.171 43.7021V42.6064H568.064H566.969H565.862H564.767V43.7021V44.7978H565.862H566.969H568.064H569.171V43.7021ZM568.064 40.4042H569.171V39.3085V38.2021H568.064H566.969H565.862H564.767V39.3085V40.4042H565.862H566.969H568.064ZM581.079 37.1064H582.175V38.2021V39.3085H581.079H579.973V38.2021H578.877H577.781H576.675H575.579V39.3085V40.4042V41.4999V42.6064V43.7021V44.7978H576.675H577.781H578.877H579.973V43.7021H581.079H582.175V44.7978V45.9042H581.079V46.9999H579.973H578.877H577.781H576.675H575.579H574.483V45.9042H573.377V44.7978V43.7021V42.6064V41.4999V40.4042V39.3085V38.2021V37.1064H574.483V35.9999H575.579H576.675H577.781H578.877H579.973H581.079V37.1064Z" fill="#1E3445"/>
</g>
<g filter="url(#filter6_d_41_2314)">
<path d="M601 60V57H604V54H607V29H604V26H601V23H598V60H601Z" fill="#F7FBF8"/>
</g>
<g filter="url(#filter7_d_41_2314)">
<path d="M700 23V26H697V29H694V54H697V57H700V60H703V23H700Z" fill="#F7FBF8"/>
</g>
<g filter="url(#filter8_d_41_2314)">
<rect width="85" height="37" transform="translate(703 23)" fill="#F7FBF8"/>
<path d="M721.454 37.1171H722.55V38.2128V39.3085V40.415V41.5107H721.454V42.6064H720.348V43.7128H721.454V44.8085H722.55V45.9042V47.0107H721.454H720.348V45.9042H719.252V44.8085H718.146V43.7128H717.05H715.954V44.8085V45.9042V47.0107H714.848H713.752V45.9042V44.8085V43.7128V42.6064V41.5107V40.415V39.3085V38.2128V37.1171V36.0107H714.848H715.954H717.05H718.146H719.252H720.348H721.454V37.1171ZM719.252 41.5107H720.348V40.415V39.3085V38.2128H719.252H718.146H717.05H715.954V39.3085V40.415V41.5107H717.05H718.146H719.252ZM732.267 38.2128H733.362V39.3193V40.415V41.5107V42.6171V43.7128V44.8085V45.915V47.0107H732.267H731.171V45.915V44.8085V43.7128H730.064H728.969H727.862H726.767V44.8085V45.915V47.0107H725.671H724.564V45.915V44.8085V43.7128V42.6171V41.5107V40.415V39.3193V38.2128H725.671V37.1171H726.767V36.0107H727.862H728.969H730.064H731.171V37.1171H732.267V38.2128ZM731.182 40.4042V39.3085H730.075V38.2021H728.979H727.873V39.3085H726.777V40.4042V41.4999H727.873H728.979H730.075H731.182V40.4042ZM743.068 36.0107H744.175V37.1171V38.2128V39.3085H743.068V38.2128H741.973H740.877V39.3085V40.415V41.5107V42.6064V43.7128V44.8085V45.9042V47.0107H739.771H738.675V45.9042V44.8085V43.7128V42.6064V41.5107V40.415V39.3085V38.2128H737.568H736.473V39.3085H735.377V38.2128V37.1171V36.0107H736.473H737.568H738.675H739.771H740.877H741.973H743.068ZM753.892 35.9999V37.2997V38.2021H752.785H751.689V39.3085V40.4042V41.4999V42.6064V43.7021V44.7978H752.785H753.892V46.9999H752.785H751.689H750.594H749.487H748.392H747.285V44.7978H748.392H749.487V43.7021V42.6064V41.4999V40.4042V39.3085V38.2021H748.392H747.285V35.9999H748.392H749.487H750.594H751.689H752.785H753.892ZM753.892 35.9999H754.987V37.1064V38.2021H753.892H752.785H751.689H750.594H749.487H748.392H747.296H746.189V37.1064V35.9999H747.296H748.392H749.487H750.594H751.689H752.785H753.892ZM753.892 44.8085H754.987V45.9042V46.9999H753.892H752.785H751.689H750.594H749.487H748.392H747.296H746.189V45.9042V44.8085H747.296H748.392H749.487H750.594H751.689H752.785H753.892ZM764.693 35.9999H765.789V37.1064V38.2021V39.3085V40.4042V41.4999V42.6064V43.7021V44.7978V45.9042V46.9999H764.693H763.598H762.491H761.396V45.9042H760.3V44.7978V43.7021V42.6064V41.4999V40.4042V39.3085V38.2021V37.1064H759.193V38.2021V39.3085V40.4042V41.4999V42.6064V43.7021V44.7978V45.9042V46.9999H758.098H757.002V45.9042V44.7978V43.7021V42.6064V41.4999V40.4042V39.3085V38.2021V37.1064V35.9999H758.098H759.193H760.3H761.396V37.1064H762.491V38.2021V39.3085V40.4042V41.4999V42.6064V43.7021V44.7978V45.9042H763.598V44.7978V43.7021V42.6064V41.4999V40.4042V39.3085V38.2021V37.1064V35.9999H764.693ZM775.484 37.1064H776.591V38.2021V39.3085H775.484H774.389V38.2021H773.293H772.187H771.091H769.984V39.3085V40.4042V41.4999V42.6064V43.7021V44.7978H771.091H772.187H773.293H774.389V43.7021V42.6064H773.293H772.187H771.091V41.4999V40.4042H772.187H773.293H774.389H775.484V41.4999H776.591V42.6064V43.7021V44.7978V45.9042H775.484V46.9999H774.389H773.293H772.187H771.091H769.984H768.889V45.9042H767.793V44.7978V43.7021V42.6064V41.4999V40.4042V39.3085V38.2021V37.1064H768.889V35.9999H769.984H771.091H772.187H773.293H774.389H775.484V37.1064Z" fill="#1E3445"/>
</g>
<g filter="url(#filter9_d_41_2314)">
<path d="M791 60V57H794V54H797V29H794V26H791V23H788V60H791Z" fill="#F7FBF8"/>
</g>
<path d="M45.3516 32H47.3633V34.0117V36.0039H45.3516H43.3594H41.3672H39.3555H37.3633H35.3711V38.0156V40.0078H37.3633H39.3555H41.3672H43.3594H45.3516V42H43.3594V44.0117H41.3672H39.3555H37.3633H35.3711V46.0039V47.9961V50.0078V52H33.3594H31.3672V50.0078V47.9961V46.0039V44.0117V42V40.0078V38.0156V36.0039V34.0117V32H33.3594H35.3711H37.3633H39.3555H41.3672H43.3594H45.3516ZM64.6211 32V34.3633V36.0039H62.6094H60.6172V38.0156V40.0078V42V44.0117V46.0039V47.9961H62.6094H64.6211V52H62.6094H60.6172H58.625H56.6133H54.6211H52.6094V47.9961H54.6211H56.6133V46.0039V44.0117V42V40.0078V38.0156V36.0039H54.6211H52.6094V32H54.6211H56.6133H58.625H60.6172H62.6094H64.6211ZM64.6211 32H66.6133V34.0117V36.0039H64.6211H62.6094H60.6172H58.625H56.6133H54.6211H52.6289H50.6172V34.0117V32H52.6289H54.6211H56.6133H58.625H60.6172H62.6094H64.6211ZM64.6211 48.0156H66.6133V50.0078V52H64.6211H62.6094H60.6172H58.625H56.6133H54.6211H52.6289H50.6172V50.0078V48.0156H52.6289H54.6211H56.6133H58.625H60.6172H62.6094H64.6211ZM83.8516 46.0234H85.8633V48.0156V50.0273V52.0195H83.8516H81.8594H79.8477H77.8555H75.8633H73.8516H71.8594H69.8672V50.0273V48.0156V46.0234V44.0117V42.0195V40.0273V38.0156V36.0234V34.0312V32.0195H71.8594H73.8516V34.0312V36.0234V38.0156V40.0273V42.0195V44.0117V46.0234V48.0156H75.8633H77.8555H79.8477H81.8594V46.0234H83.8516ZM103.121 32H105.113V34.0117V36.0039H103.121H101.109H99.1172H97.1055H95.1133H93.1211V38.0156V40.0078H95.1133H97.1055H99.1172H101.109H103.121V42H101.109V44.0117H99.1172H97.1055H95.1133H93.1211V46.0039V47.9961H95.1133H97.1055H99.1172H101.109H103.121H105.113V50.0078V52H103.121H101.109H99.1172H97.1055H95.1133H93.1211H91.1094H89.1172V50.0078V47.9961V46.0039V44.0117V42V40.0078V38.0156V36.0039V34.0117V32H91.1094H93.1211H95.1133H97.1055H99.1172H101.109H103.121ZM122.352 32.0195H124.363V34.0312V36.0234V38.0156H122.352V36.0234H120.359H118.367V38.0156V40.0273V42.0195V44.0117V46.0234V48.0156V50.0078V52.0195H116.355H114.363V50.0078V48.0156V46.0234V44.0117V42.0195V40.0273V38.0156V36.0234H112.352H110.359V38.0156H108.367V36.0234V34.0312V32.0195H110.359H112.352H114.363H116.355H118.367H120.359H122.352ZM141.621 32H143.613V34.0117V36.0039H141.621H139.609H137.617H135.605H133.613H131.621V38.0156V40.0078H133.613H135.605H137.617H139.609H141.621V42H139.609V44.0117H137.617H135.605H133.613H131.621V46.0039V47.9961H133.613H135.605H137.617H139.609H141.621H143.613V50.0078V52H141.621H139.609H137.617H135.605H133.613H131.621H129.609H127.617V50.0078V47.9961V46.0039V44.0117V42V40.0078V38.0156V36.0039V34.0117V32H129.609H131.621H133.613H135.605H137.617H139.609H141.621ZM160.871 34.0312H162.863V36.0234V38.0156V40.0273V42.0195H160.871V44.0117H158.859V46.0234H160.871V48.0156H162.863V50.0078V52.0195H160.871H158.859V50.0078H156.867V48.0156H154.855V46.0234H152.863H150.871V48.0156V50.0078V52.0195H148.859H146.867V50.0078V48.0156V46.0234V44.0117V42.0195V40.0273V38.0156V36.0234V34.0312V32.0195H148.859H150.871H152.863H154.855H156.867H158.859H160.871V34.0312ZM156.867 42.0195H158.859V40.0273V38.0156V36.0234H156.867H154.855H152.863H150.871V38.0156V40.0273V42.0195H152.863H154.855H156.867ZM187.281 34.0312H189.293V36.0234V38.0156H187.281H185.289V36.0234H183.297H181.285H179.293H177.301V38.0156V40.0273H179.293H181.285H183.297H185.289H187.281V42.0195H189.293V44.0117V46.0234V48.0156V50.0078H187.281V52.0195H185.289H183.297H181.285H179.293H177.301H175.289V50.0078H173.297V48.0156V46.0234H175.289H177.301V48.0156H179.293H181.285H183.297H185.289V46.0234V44.0117H183.297H181.285H179.293H177.301V42.0195H175.289V40.0273H173.297V38.0156V36.0234V34.0312H175.289V32.0195H177.301H179.293H181.285H183.297H185.289H187.281V34.0312ZM206.551 32H208.543V34.0117V36.0039H206.551H204.539H202.547H200.535H198.543H196.551V38.0156V40.0078H198.543H200.535H202.547H204.539H206.551V42H204.539V44.0117H202.547H200.535H198.543H196.551V46.0039V47.9961H198.543H200.535H202.547H204.539H206.551H208.543V50.0078V52H206.551H204.539H202.547H200.535H198.543H196.551H194.539H192.547V50.0078V47.9961V46.0039V44.0117V42V40.0078V38.0156V36.0039V34.0117V32H194.539H196.551H198.543H200.535H202.547H204.539H206.551ZM225.801 36.0234H227.793V38.0352V40.0273V42.0195V44.0312V46.0234V48.0156V50.0273V52.0195H225.801H223.809V50.0273V48.0156V46.0234H221.797H219.805H217.793H215.801V48.0156V50.0273V52.0195H213.809H211.797V50.0273V48.0156V46.0234V44.0312V42.0195V40.0273V38.0352V36.0234H213.809V34.0312H215.801V32.0195H217.793H219.805H221.797H223.809V34.0312H225.801V36.0234ZM223.828 40.0078V38.0156H221.816V36.0039H219.824H217.812V38.0156H215.82V40.0078V42H217.812H219.824H221.816H223.828V40.0078ZM245.051 34.0312H247.043V36.0234V38.0156V40.0273V42.0195H245.051V44.0117H243.039V46.0234H245.051V48.0156H247.043V50.0078V52.0195H245.051H243.039V50.0078H241.047V48.0156H239.035V46.0234H237.043H235.051V48.0156V50.0078V52.0195H233.039H231.047V50.0078V48.0156V46.0234V44.0117V42.0195V40.0273V38.0156V36.0234V34.0312V32.0195H233.039H235.051H237.043H239.035H241.047H243.039H245.051V34.0312ZM241.047 42.0195H243.039V40.0273V38.0156V36.0234H241.047H239.035H237.043H235.051V38.0156V40.0273V42.0195H237.043H239.035H241.047ZM264.301 34.0117H266.293V36.0039V38.0156H264.301H262.289V36.0039H260.297H258.305H256.293H254.301V38.0156V40.0078V42V44.0117V46.0039V47.9961H256.293H258.305H260.297H262.289V46.0039H264.301H266.293V47.9961V50.0078H264.301V52H262.289H260.297H258.305H256.293H254.301H252.309V50.0078H250.297V47.9961V46.0039V44.0117V42V40.0078V38.0156V36.0039V34.0117H252.309V32H254.301H256.293H258.305H260.297H262.289H264.301V34.0117ZM283.531 32H285.523V34.0117V36.0039V38.0156V40.0078V42V44.0117V46.0039V47.9961V50.0078V52H283.531H281.539V50.0078V47.9961V46.0039V44.0117H279.527H277.535H275.543H273.531V46.0039V47.9961V50.0078V52H271.539H269.547V50.0078V47.9961V46.0039V44.0117V42V40.0078V38.0156V36.0039V34.0117V32H271.539H273.531V34.0117V36.0039V38.0156V40.0078H275.543H277.535H279.527H281.539V38.0156V36.0039V34.0117V32H283.531ZM290.75 34.0117H292.762V36.0234V38.0156H290.75H288.758V36.0234V34.0117H290.75ZM288.758 47.9961H290.75H292.762V50.0078V52H290.75H288.758V50.0078V47.9961Z" fill="black"/>
<defs>
<filter id="filter0_d_41_2314" x="0" y="0" width="874" height="89" filterUnits="userSpaceOnUse" color-interpolation-filters="sRGB">
<feFlood flood-opacity="0" result="BackgroundImageFix"/>
<feColorMatrix in="SourceAlpha" type="matrix" values="0 0 0 0 0 0 0 0 0 0 0 0 0 0 0 0 0 0 127 0" result="hardAlpha"/>
<feOffset dx="3" dy="3"/>
<feComposite in2="hardAlpha" operator="out"/>
<feColorMatrix type="matrix" values="0 0 0 0 0.117647 0 0 0 0 0.203922 0 0 0 0 0.270588 0 0 0 1 0"/>
<feBlend mode="normal" in2="BackgroundImageFix" result="effect1_dropShadow_41_2314"/>
<feBlend mode="normal" in="SourceGraphic" in2="effect1_dropShadow_41_2314" result="shape"/>
</filter>
<filter id="filter1_d_41_2314" x="348" y="23" width="12" height="40" filterUnits="userSpaceOnUse" color-interpolation-filters="sRGB">
<feFlood flood-opacity="0" result="BackgroundImageFix"/>
<feColorMatrix in="SourceAlpha" type="matrix" values="0 0 0 0 0 0 0 0 0 0 0 0 0 0 0 0 0 0 127 0" result="hardAlpha"/>
<feOffset dx="3" dy="3"/>
<feComposite in2="hardAlpha" operator="out"/>
<feColorMatrix type="matrix" values="0 0 0 0 0.117647 0 0 0 0 0.203922 0 0 0 0 0.270588 0 0 0 1 0"/>
<feBlend mode="normal" in2="BackgroundImageFix" result="effect1_dropShadow_41_2314"/>
<feBlend mode="normal" in="SourceGraphic" in2="effect1_dropShadow_41_2314" result="shape"/>
</filter>
<filter id="filter2_d_41_2314" x="357" y="23" width="77" height="40" filterUnits="userSpaceOnUse" color-interpolation-filters="sRGB">
<feFlood flood-opacity="0" result="BackgroundImageFix"/>
<feColorMatrix in="SourceAlpha" type="matrix" values="0 0 0 0 0 0 0 0 0 0 0 0 0 0 0 0 0 0 127 0" result="hardAlpha"/>
<feOffset dx="3" dy="3"/>
<feComposite in2="hardAlpha" operator="out"/>
<feColorMatrix type="matrix" values="0 0 0 0 0.117647 0 0 0 0 0.203922 0 0 0 0 0.270588 0 0 0 1 0"/>
<feBlend mode="normal" in2="BackgroundImageFix" result="effect1_dropShadow_41_2314"/>
<feBlend mode="normal" in="SourceGraphic" in2="effect1_dropShadow_41_2314" result="shape"/>
</filter>
<filter id="filter3_d_41_2314" x="431" y="23" width="12" height="40" filterUnits="userSpaceOnUse" color-interpolation-filters="sRGB">
<feFlood flood-opacity="0" result="BackgroundImageFix"/>
<feColorMatrix in="SourceAlpha" type="matrix" values="0 0 0 0 0 0 0 0 0 0 0 0 0 0 0 0 0 0 127 0" result="hardAlpha"/>
<feOffset dx="3" dy="3"/>
<feComposite in2="hardAlpha" operator="out"/>
<feColorMatrix type="matrix" values="0 0 0 0 0.117647 0 0 0 0 0.203922 0 0 0 0 0.270588 0 0 0 1 0"/>
<feBlend mode="normal" in2="BackgroundImageFix" result="effect1_dropShadow_41_2314"/>
<feBlend mode="normal" in="SourceGraphic" in2="effect1_dropShadow_41_2314" result="shape"/>
</filter>
<filter id="filter4_d_41_2314" x="527" y="23" width="12" height="40" filterUnits="userSpaceOnUse" color-interpolation-filters="sRGB">
<feFlood flood-opacity="0" result="BackgroundImageFix"/>
<feColorMatrix in="SourceAlpha" type="matrix" values="0 0 0 0 0 0 0 0 0 0 0 0 0 0 0 0 0 0 127 0" result="hardAlpha"/>
<feOffset dx="3" dy="3"/>
<feComposite in2="hardAlpha" operator="out"/>
<feColorMatrix type="matrix" values="0 0 0 0 0.117647 0 0 0 0 0.203922 0 0 0 0 0.270588 0 0 0 1 0"/>
<feBlend mode="normal" in2="BackgroundImageFix" result="effect1_dropShadow_41_2314"/>
<feBlend mode="normal" in="SourceGraphic" in2="effect1_dropShadow_41_2314" result="shape"/>
</filter>
<filter id="filter5_d_41_2314" x="536" y="23" width="65" height="40" filterUnits="userSpaceOnUse" color-interpolation-filters="sRGB">
<feFlood flood-opacity="0" result="BackgroundImageFix"/>
<feColorMatrix in="SourceAlpha" type="matrix" values="0 0 0 0 0 0 0 0 0 0 0 0 0 0 0 0 0 0 127 0" result="hardAlpha"/>
<feOffset dx="3" dy="3"/>
<feComposite in2="hardAlpha" operator="out"/>
<feColorMatrix type="matrix" values="0 0 0 0 0.117647 0 0 0 0 0.203922 0 0 0 0 0.270588 0 0 0 1 0"/>
<feBlend mode="normal" in2="BackgroundImageFix" result="effect1_dropShadow_41_2314"/>
<feBlend mode="normal" in="SourceGraphic" in2="effect1_dropShadow_41_2314" result="shape"/>
</filter>
<filter id="filter6_d_41_2314" x="598" y="23" width="12" height="40" filterUnits="userSpaceOnUse" color-interpolation-filters="sRGB">
<feFlood flood-opacity="0" result="BackgroundImageFix"/>
<feColorMatrix in="SourceAlpha" type="matrix" values="0 0 0 0 0 0 0 0 0 0 0 0 0 0 0 0 0 0 127 0" result="hardAlpha"/>
<feOffset dx="3" dy="3"/>
<feComposite in2="hardAlpha" operator="out"/>
<feColorMatrix type="matrix" values="0 0 0 0 0.117647 0 0 0 0 0.203922 0 0 0 0 0.270588 0 0 0 1 0"/>
<feBlend mode="normal" in2="BackgroundImageFix" result="effect1_dropShadow_41_2314"/>
<feBlend mode="normal" in="SourceGraphic" in2="effect1_dropShadow_41_2314" result="shape"/>
</filter>
<filter id="filter7_d_41_2314" x="694" y="23" width="12" height="40" filterUnits="userSpaceOnUse" color-interpolation-filters="sRGB">
<feFlood flood-opacity="0" result="BackgroundImageFix"/>
<feColorMatrix in="SourceAlpha" type="matrix" values="0 0 0 0 0 0 0 0 0 0 0 0 0 0 0 0 0 0 127 0" result="hardAlpha"/>
<feOffset dx="3" dy="3"/>
<feComposite in2="hardAlpha" operator="out"/>
<feColorMatrix type="matrix" values="0 0 0 0 0.117647 0 0 0 0 0.203922 0 0 0 0 0.270588 0 0 0 1 0"/>
<feBlend mode="normal" in2="BackgroundImageFix" result="effect1_dropShadow_41_2314"/>
<feBlend mode="normal" in="SourceGraphic" in2="effect1_dropShadow_41_2314" result="shape"/>
</filter>
<filter id="filter8_d_41_2314" x="703" y="23" width="88" height="40" filterUnits="userSpaceOnUse" color-interpolation-filters="sRGB">
<feFlood flood-opacity="0" result="BackgroundImageFix"/>
<feColorMatrix in="SourceAlpha" type="matrix" values="0 0 0 0 0 0 0 0 0 0 0 0 0 0 0 0 0 0 127 0" result="hardAlpha"/>
<feOffset dx="3" dy="3"/>
<feComposite in2="hardAlpha" operator="out"/>
<feColorMatrix type="matrix" values="0 0 0 0 0.117647 0 0 0 0 0.203922 0 0 0 0 0.270588 0 0 0 1 0"/>
<feBlend mode="normal" in2="BackgroundImageFix" result="effect1_dropShadow_41_2314"/>
<feBlend mode="normal" in="SourceGraphic" in2="effect1_dropShadow_41_2314" result="shape"/>
</filter>
<filter id="filter9_d_41_2314" x="788" y="23" width="12" height="40" filterUnits="userSpaceOnUse" color-interpolation-filters="sRGB">
<feFlood flood-opacity="0" result="BackgroundImageFix"/>
<feColorMatrix in="SourceAlpha" type="matrix" values="0 0 0 0 0 0 0 0 0 0 0 0 0 0 0 0 0 0 127 0" result="hardAlpha"/>
<feOffset dx="3" dy="3"/>
<feComposite in2="hardAlpha" operator="out"/>
<feColorMatrix type="matrix" values="0 0 0 0 0.117647 0 0 0 0 0.203922 0 0 0 0 0.270588 0 0 0 1 0"/>
<feBlend mode="normal" in2="BackgroundImageFix" result="effect1_dropShadow_41_2314"/>
<feBlend mode="normal" in="SourceGraphic" in2="effect1_dropShadow_41_2314" result="shape"/>
</filter>
</defs>
</svg>
