<svg width="358" height="223" viewBox="0 0 358 223" fill="none" xmlns="http://www.w3.org/2000/svg">
<g filter="url(#filter0_d_40_2001)">
<path d="M2.99536 9.5V6.5H5.99536V3.5H8.99536V6.5V9.5H5.99536V12.5H2.99536V9.5Z" fill="#F7FBF8"/>
<path d="M2.99536 9.5V12.5H-4.48227e-05V9.5H2.99536Z" fill="#F7FBF8"/>
<rect x="8.99536" y="3.5" width="337.009" height="3" fill="#F7FBF8"/>
<path d="M352.005 9.5V6.5H349.005V3.5H346.005V6.5V9.5H349.005V12.5H352.005V9.5Z" fill="#F7FBF8"/>
<path d="M352.005 9.5V12.5H355V9.5H352.005Z" fill="#F7FBF8"/>
<rect y="12.5" width="3" height="198" fill="#F7FBF8"/>
<rect width="349" height="210" transform="translate(3 6.5)" fill="#F7FBF8"/>
<rect x="352" y="12.5" width="3" height="198" fill="#F7FBF8"/>
<path d="M2.99536 213.5V216.5H5.99536V219.5H8.99536V216.5V213.5H5.99536V210.5H2.99536V213.5Z" fill="#F7FBF8"/>
<path d="M2.99536 213.5V210.5H-4.48227e-05V213.5H2.99536Z" fill="#F7FBF8"/>
<rect width="337.009" height="3" transform="matrix(1 0 0 -1 8.99536 219.5)" fill="#F7FBF8"/>
<path d="M352.005 213.5V216.5H349.005V219.5H346.005V216.5V213.5H349.005V210.5H352.005V213.5Z" fill="#F7FBF8"/>
<path d="M352.005 213.5V210.5H355V213.5H352.005Z" fill="#F7FBF8"/>
</g>
<defs>
<filter id="filter0_d_40_2001" x="0" y="0" width="358" height="226" filterUnits="userSpaceOnUse" color-interpolation-filters="sRGB">
<feFlood flood-opacity="0" result="BackgroundImageFix"/>
<feColorMatrix in="SourceAlpha" type="matrix" values="0 0 0 0 0 0 0 0 0 0 0 0 0 0 0 0 0 0 127 0" result="hardAlpha"/>
<feOffset dx="3" dy="3"/>
<feComposite in2="hardAlpha" operator="out"/>
<feColorMatrix type="matrix" values="0 0 0 0 0.117647 0 0 0 0 0.203922 0 0 0 0 0.270588 0 0 0 1 0"/>
<feBlend mode="normal" in2="BackgroundImageFix" result="effect1_dropShadow_40_2001"/>
<feBlend mode="normal" in="SourceGraphic" in2="effect1_dropShadow_40_2001" result="shape"/>
</filter>
</defs>
</svg>
